G04 #@! TF.FileFunction,Copper,L2,Bot,Signal*
%FSLAX46Y46*%
G04 Gerber Fmt 4.6, Leading zero omitted, Abs format (unit mm)*
G04 Created by KiCad (PCBNEW 4.0.7) date 02/27/18 16:38:18*
%MOMM*%
%LPD*%
G01*
G04 APERTURE LIST*
%ADD10C,0.100000*%
%ADD11C,2.000000*%
%ADD12C,0.900000*%
%ADD13C,1.000000*%
%ADD14O,3.000000X3.000000*%
%ADD15C,2.540000*%
%ADD16R,2.000000X2.000000*%
%ADD17O,2.300000X2.300000*%
G04 APERTURE END LIST*
D10*
D11*
X151140000Y-74050000D03*
X153680000Y-74050000D03*
X156220000Y-74050000D03*
X158760000Y-74050000D03*
X161300000Y-74050000D03*
X163840000Y-74050000D03*
X166380000Y-74050000D03*
X168920000Y-74050000D03*
X171460000Y-74050000D03*
X174000000Y-74050000D03*
X176540000Y-74050000D03*
X179080000Y-74050000D03*
X181620000Y-74050000D03*
X184160000Y-74050000D03*
X186700000Y-74050000D03*
X189240000Y-74050000D03*
D12*
X191780000Y-74050000D03*
X194320000Y-74050000D03*
D11*
X196860000Y-74050000D03*
X151140000Y-99450000D03*
X153680000Y-99450000D03*
X156220000Y-99450000D03*
X158760000Y-99450000D03*
X161300000Y-99450000D03*
X163840000Y-99450000D03*
X166380000Y-99450000D03*
X168920000Y-99450000D03*
X171460000Y-99450000D03*
X174000000Y-99450000D03*
X176540000Y-99450000D03*
D13*
X179080000Y-99450000D03*
X181620000Y-99450000D03*
D11*
X184160000Y-99450000D03*
X186700000Y-99450000D03*
X189240000Y-99450000D03*
X191780000Y-99450000D03*
X194320000Y-99450000D03*
X196860000Y-99450000D03*
D14*
X217825000Y-94868340D03*
X224175000Y-94868340D03*
X217825000Y-90370000D03*
X224175000Y-90370000D03*
D11*
X218460000Y-72590000D03*
X221000000Y-72590000D03*
X223540000Y-72590000D03*
D15*
X213380000Y-89417500D03*
X213380000Y-76082500D03*
X228620000Y-76082500D03*
X228620000Y-89417500D03*
D11*
X210840000Y-85290000D03*
X210840000Y-82750000D03*
X210840000Y-80210000D03*
D16*
X123000000Y-75000000D03*
D17*
X125540000Y-75000000D03*
X138240000Y-97872700D03*
X128080000Y-75000000D03*
X135700000Y-97872700D03*
X130620000Y-75000000D03*
X133160000Y-97872700D03*
X133160000Y-75000000D03*
X130620000Y-97872700D03*
X135700000Y-75000000D03*
X128080000Y-97872700D03*
X138240000Y-75000000D03*
X125540000Y-97872700D03*
X123000000Y-97872700D03*
M02*
