M48
;DRILL file {KiCad 4.0.7} date 03/01/18 21:16:27
;FORMAT={-:-/ absolute / inch / decimal}
FMAT,2
INCH,TZ
T1C0.031
%
G90
G05
M72
T1
X4.8425Y-2.9528
X4.8425Y-3.8533
X4.9425Y-2.9528
X4.9425Y-3.8533
X5.0425Y-2.9528
X5.0425Y-3.8533
X5.1425Y-2.9528
X5.1425Y-3.8533
X5.2425Y-2.9528
X5.2425Y-3.8533
X5.3425Y-2.9528
X5.3425Y-3.8533
X5.4425Y-2.9528
X5.4425Y-3.8533
X5.9504Y-2.9154
X5.9504Y-3.9154
X6.0504Y-2.9154
X6.0504Y-3.9154
X6.1504Y-2.9154
X6.1504Y-3.9154
X6.2504Y-2.9154
X6.2504Y-3.9154
X6.3504Y-2.9154
X6.3504Y-3.9154
X6.4504Y-2.9154
X6.4504Y-3.9154
X6.5504Y-2.9154
X6.5504Y-3.9154
X6.6504Y-2.9154
X6.6504Y-3.9154
X6.7504Y-2.9154
X6.7504Y-3.9154
X6.8504Y-2.9154
X6.8504Y-3.9154
X6.9245Y-1.8829
X6.9245Y-2.1329
X6.9504Y-2.9154
X6.9504Y-3.9154
X7.0504Y-2.9154
X7.0504Y-3.9154
X7.1016Y-1.8829
X7.1016Y-2.1329
X7.1391Y-1.7079
X7.1391Y-2.3079
X7.1504Y-2.9154
X7.1504Y-3.9154
X7.2504Y-2.9154
X7.2504Y-3.9154
X7.3016Y-1.6079
X7.3504Y-2.9154
X7.3504Y-3.9154
X7.4016Y-1.6079
X7.4504Y-2.9154
X7.4504Y-3.9154
X7.5016Y-1.6079
X7.5504Y-2.9154
X7.5504Y-3.9154
X7.6504Y-2.9154
X7.6504Y-3.9154
X7.6641Y-1.7079
X7.6641Y-2.3079
X7.7504Y-2.9154
X7.7504Y-3.9154
X7.8016Y-1.9079
X7.8016Y-2.0079
X7.8016Y-2.1079
T0
M30
