G04 #@! TF.FileFunction,Copper,L1,Top,Signal*
%FSLAX46Y46*%
G04 Gerber Fmt 4.6, Leading zero omitted, Abs format (unit mm)*
G04 Created by KiCad (PCBNEW 4.0.7) date 03/01/18 21:16:25*
%MOMM*%
%LPD*%
G01*
G04 APERTURE LIST*
%ADD10C,0.100000*%
%ADD11O,3.000000X3.000000*%
%ADD12R,3.000000X3.000000*%
%ADD13C,2.300000*%
%ADD14R,2.300000X2.300000*%
%ADD15C,2.540000*%
%ADD16C,2.000000*%
%ADD17R,2.000000X2.000000*%
%ADD18C,1.000000*%
%ADD19O,2.300000X2.300000*%
%ADD20C,0.800000*%
%ADD21C,0.254000*%
G04 APERTURE END LIST*
D10*
D11*
X175881660Y-47825000D03*
X175881660Y-54175000D03*
D12*
X180380000Y-47825000D03*
D11*
X180380000Y-54175000D03*
D13*
X198160000Y-48460000D03*
X198160000Y-51000000D03*
D14*
X198160000Y-53540000D03*
D15*
X181332500Y-43380000D03*
X194667500Y-43380000D03*
X194667500Y-58620000D03*
X181332500Y-58620000D03*
D13*
X185460000Y-40840000D03*
X188000000Y-40840000D03*
D14*
X190540000Y-40840000D03*
D16*
X151140000Y-74050000D03*
X153680000Y-74050000D03*
X156220000Y-74050000D03*
X158760000Y-74050000D03*
X161300000Y-74050000D03*
X163840000Y-74050000D03*
X166380000Y-74050000D03*
X168920000Y-74050000D03*
X171460000Y-74050000D03*
X174000000Y-74050000D03*
X176540000Y-74050000D03*
X179080000Y-74050000D03*
X181620000Y-74050000D03*
D17*
X184160000Y-74050000D03*
D16*
X186700000Y-74050000D03*
X189240000Y-74050000D03*
X191780000Y-74050000D03*
X194320000Y-74050000D03*
X196860000Y-74050000D03*
D17*
X151140000Y-99450000D03*
D16*
X153680000Y-99450000D03*
X156220000Y-99450000D03*
X158760000Y-99450000D03*
X161300000Y-99450000D03*
X163840000Y-99450000D03*
X166380000Y-99450000D03*
X168920000Y-99450000D03*
X171460000Y-99450000D03*
X174000000Y-99450000D03*
X176540000Y-99450000D03*
D18*
X179080000Y-99450000D03*
X181620000Y-99450000D03*
D16*
X184160000Y-99450000D03*
X186700000Y-99450000D03*
X189240000Y-99450000D03*
X191780000Y-99450000D03*
X194320000Y-99450000D03*
X196860000Y-99450000D03*
D13*
X123000000Y-75000000D03*
D19*
X125540000Y-75000000D03*
D14*
X138240000Y-97872700D03*
D19*
X128080000Y-75000000D03*
X135700000Y-97872700D03*
X130620000Y-75000000D03*
X133160000Y-97872700D03*
X133160000Y-75000000D03*
X130620000Y-97872700D03*
X135700000Y-75000000D03*
X128080000Y-97872700D03*
X138240000Y-75000000D03*
X125540000Y-97872700D03*
D14*
X123000000Y-97872700D03*
D20*
X189240000Y-99450000D02*
X189240000Y-95740000D01*
X141830000Y-88750000D02*
X128080000Y-75000000D01*
X182250000Y-88750000D02*
X141830000Y-88750000D01*
X189240000Y-95740000D02*
X182250000Y-88750000D01*
X186700000Y-99450000D02*
X186700000Y-98450000D01*
X186700000Y-98450000D02*
X183000000Y-94750000D01*
X183000000Y-94750000D02*
X136500000Y-94750000D01*
X136500000Y-94750000D02*
X135700000Y-95550000D01*
X135700000Y-95550000D02*
X135700000Y-97872700D01*
X153680000Y-99450000D02*
X153680000Y-100320000D01*
X153680000Y-100320000D02*
X152750000Y-101250000D01*
X133160000Y-99660000D02*
X133160000Y-97872700D01*
X134750000Y-101250000D02*
X133160000Y-99660000D01*
X152750000Y-101250000D02*
X134750000Y-101250000D01*
X153680000Y-99450000D02*
X153680000Y-98930000D01*
X153680000Y-99450000D02*
X153680000Y-99680000D01*
X153680000Y-99450000D02*
X153680000Y-99930000D01*
X185460000Y-40840000D02*
X185460000Y-38000000D01*
X150250000Y-71500000D02*
X150250000Y-60500000D01*
X172750000Y-38000000D02*
X185460000Y-38000000D01*
X185460000Y-38000000D02*
X187000000Y-38000000D01*
X150250000Y-60500000D02*
X172750000Y-38000000D01*
X151140000Y-74050000D02*
X151140000Y-72140000D01*
X133160000Y-72590000D02*
X133160000Y-75000000D01*
X134250000Y-71500000D02*
X133160000Y-72590000D01*
X150500000Y-71500000D02*
X150250000Y-71500000D01*
X150250000Y-71500000D02*
X134250000Y-71500000D01*
X151140000Y-72140000D02*
X150500000Y-71500000D01*
X198160000Y-48460000D02*
X198160000Y-39160000D01*
X197000000Y-38000000D02*
X187000000Y-38000000D01*
X198160000Y-39160000D02*
X197000000Y-38000000D01*
X168920000Y-99450000D02*
X168920000Y-100830000D01*
X130620000Y-100370000D02*
X130620000Y-97872700D01*
X132750000Y-102500000D02*
X130620000Y-100370000D01*
X167250000Y-102500000D02*
X132750000Y-102500000D01*
X168920000Y-100830000D02*
X167250000Y-102500000D01*
X168920000Y-99450000D02*
X168920000Y-100170000D01*
X168920000Y-99450000D02*
X168950000Y-99450000D01*
X171460000Y-99450000D02*
X171460000Y-100540000D01*
X128080000Y-101330000D02*
X128080000Y-97872700D01*
X130750000Y-104000000D02*
X128080000Y-101330000D01*
X168000000Y-104000000D02*
X130750000Y-104000000D01*
X171460000Y-100540000D02*
X168000000Y-104000000D01*
X171460000Y-99450000D02*
X171460000Y-99210000D01*
X171460000Y-99450000D02*
X171460000Y-99460000D01*
X171460000Y-99450000D02*
X171460000Y-99710000D01*
X186700000Y-74050000D02*
X186700000Y-55950000D01*
X179306660Y-51250000D02*
X175881660Y-47825000D01*
X182000000Y-51250000D02*
X179306660Y-51250000D01*
X186700000Y-55950000D02*
X182000000Y-51250000D01*
X198160000Y-51000000D02*
X203250000Y-51000000D01*
X161300000Y-76800000D02*
X161300000Y-74050000D01*
X165250000Y-80750000D02*
X161300000Y-76800000D01*
X200000000Y-80750000D02*
X165250000Y-80750000D01*
X206000000Y-74750000D02*
X200000000Y-80750000D01*
X206000000Y-53750000D02*
X206000000Y-74750000D01*
X203250000Y-51000000D02*
X206000000Y-53750000D01*
X161300000Y-74050000D02*
X161300000Y-74300000D01*
X163840000Y-74050000D02*
X163840000Y-52410000D01*
X188000000Y-43250000D02*
X188000000Y-40840000D01*
X187500000Y-43750000D02*
X188000000Y-43250000D01*
X185500000Y-43750000D02*
X187500000Y-43750000D01*
X182750000Y-41000000D02*
X185500000Y-43750000D01*
X175250000Y-41000000D02*
X182750000Y-41000000D01*
X163840000Y-52410000D02*
X175250000Y-41000000D01*
X176540000Y-99450000D02*
X176540000Y-102710000D01*
X125540000Y-101040000D02*
X125540000Y-97872700D01*
X129750000Y-105250000D02*
X125540000Y-101040000D01*
X174000000Y-105250000D02*
X129750000Y-105250000D01*
X176540000Y-102710000D02*
X174000000Y-105250000D01*
X176540000Y-99450000D02*
X176540000Y-100040000D01*
X176540000Y-99450000D02*
X176540000Y-100290000D01*
X196860000Y-74050000D02*
X196300000Y-74050000D01*
X151140000Y-99450000D02*
X151140000Y-98860000D01*
D21*
G36*
X209290000Y-109290000D02*
X115710000Y-109290000D01*
X115710000Y-98158450D01*
X121215000Y-98158450D01*
X121215000Y-99149009D01*
X121311673Y-99382398D01*
X121490301Y-99561027D01*
X121723690Y-99657700D01*
X122714250Y-99657700D01*
X122873000Y-99498950D01*
X122873000Y-97999700D01*
X121373750Y-97999700D01*
X121215000Y-98158450D01*
X115710000Y-98158450D01*
X115710000Y-96596391D01*
X121215000Y-96596391D01*
X121215000Y-97586950D01*
X121373750Y-97745700D01*
X122873000Y-97745700D01*
X122873000Y-96246450D01*
X122714250Y-96087700D01*
X121723690Y-96087700D01*
X121490301Y-96184373D01*
X121311673Y-96363002D01*
X121215000Y-96596391D01*
X115710000Y-96596391D01*
X115710000Y-75353501D01*
X121214691Y-75353501D01*
X121485868Y-76009800D01*
X121987559Y-76512367D01*
X122643384Y-76784689D01*
X123353501Y-76785309D01*
X124009800Y-76514132D01*
X124257544Y-76266820D01*
X124277814Y-76297156D01*
X124856910Y-76684095D01*
X125540000Y-76819970D01*
X126223090Y-76684095D01*
X126802186Y-76297156D01*
X126810000Y-76285462D01*
X126817814Y-76297156D01*
X127396910Y-76684095D01*
X128080000Y-76819970D01*
X128377151Y-76760863D01*
X141098142Y-89481853D01*
X141098144Y-89481856D01*
X141299429Y-89616349D01*
X141433922Y-89706215D01*
X141830000Y-89785000D01*
X181821288Y-89785000D01*
X188205000Y-96168711D01*
X188205000Y-98172971D01*
X187969801Y-98407759D01*
X187666078Y-98103504D01*
X187656215Y-98053922D01*
X187496762Y-97815284D01*
X187431856Y-97718144D01*
X187431853Y-97718142D01*
X183731856Y-94018144D01*
X183396077Y-93793785D01*
X183000000Y-93714999D01*
X182999995Y-93715000D01*
X136500005Y-93715000D01*
X136500000Y-93714999D01*
X136103923Y-93793785D01*
X135768144Y-94018144D01*
X135768142Y-94018147D01*
X134968144Y-94818144D01*
X134743785Y-95153923D01*
X134664999Y-95550000D01*
X134665000Y-95550005D01*
X134665000Y-96423743D01*
X134437814Y-96575544D01*
X134430000Y-96587238D01*
X134422186Y-96575544D01*
X133843090Y-96188605D01*
X133160000Y-96052730D01*
X132476910Y-96188605D01*
X131897814Y-96575544D01*
X131890000Y-96587238D01*
X131882186Y-96575544D01*
X131303090Y-96188605D01*
X130620000Y-96052730D01*
X129936910Y-96188605D01*
X129357814Y-96575544D01*
X129350000Y-96587238D01*
X129342186Y-96575544D01*
X128763090Y-96188605D01*
X128080000Y-96052730D01*
X127396910Y-96188605D01*
X126817814Y-96575544D01*
X126810000Y-96587238D01*
X126802186Y-96575544D01*
X126223090Y-96188605D01*
X125540000Y-96052730D01*
X124856910Y-96188605D01*
X124651309Y-96325983D01*
X124509699Y-96184373D01*
X124276310Y-96087700D01*
X123285750Y-96087700D01*
X123127000Y-96246450D01*
X123127000Y-97745700D01*
X123147000Y-97745700D01*
X123147000Y-97999700D01*
X123127000Y-97999700D01*
X123127000Y-99498950D01*
X123285750Y-99657700D01*
X124276310Y-99657700D01*
X124505000Y-99562973D01*
X124505000Y-101039995D01*
X124504999Y-101040000D01*
X124583785Y-101436077D01*
X124808144Y-101771856D01*
X129018142Y-105981853D01*
X129018144Y-105981856D01*
X129353923Y-106206215D01*
X129750000Y-106285001D01*
X129750005Y-106285000D01*
X173999995Y-106285000D01*
X174000000Y-106285001D01*
X174396077Y-106206215D01*
X174731856Y-105981856D01*
X177271853Y-103441858D01*
X177271856Y-103441856D01*
X177412173Y-103231856D01*
X177496215Y-103106078D01*
X177575000Y-102710000D01*
X177575000Y-100727029D01*
X177925278Y-100377363D01*
X178080575Y-100003366D01*
X178117233Y-100092086D01*
X178436235Y-100411645D01*
X178853244Y-100584803D01*
X179304775Y-100585197D01*
X179722086Y-100412767D01*
X180041645Y-100093765D01*
X180214803Y-99676756D01*
X180215197Y-99225225D01*
X180042767Y-98807914D01*
X179723765Y-98488355D01*
X179306756Y-98315197D01*
X178855225Y-98314803D01*
X178437914Y-98487233D01*
X178118355Y-98806235D01*
X178080622Y-98897106D01*
X177926894Y-98525057D01*
X177467363Y-98064722D01*
X176866648Y-97815284D01*
X176216205Y-97814716D01*
X175615057Y-98063106D01*
X175269801Y-98407759D01*
X174927363Y-98064722D01*
X174326648Y-97815284D01*
X173676205Y-97814716D01*
X173075057Y-98063106D01*
X172729801Y-98407759D01*
X172387363Y-98064722D01*
X171786648Y-97815284D01*
X171136205Y-97814716D01*
X170535057Y-98063106D01*
X170189801Y-98407759D01*
X169847363Y-98064722D01*
X169246648Y-97815284D01*
X168596205Y-97814716D01*
X167995057Y-98063106D01*
X167649801Y-98407759D01*
X167307363Y-98064722D01*
X166706648Y-97815284D01*
X166056205Y-97814716D01*
X165455057Y-98063106D01*
X165109801Y-98407759D01*
X164767363Y-98064722D01*
X164166648Y-97815284D01*
X163516205Y-97814716D01*
X162915057Y-98063106D01*
X162569801Y-98407759D01*
X162227363Y-98064722D01*
X161626648Y-97815284D01*
X160976205Y-97814716D01*
X160375057Y-98063106D01*
X160029801Y-98407759D01*
X159687363Y-98064722D01*
X159086648Y-97815284D01*
X158436205Y-97814716D01*
X157835057Y-98063106D01*
X157489801Y-98407759D01*
X157147363Y-98064722D01*
X156546648Y-97815284D01*
X155896205Y-97814716D01*
X155295057Y-98063106D01*
X154949801Y-98407759D01*
X154607363Y-98064722D01*
X154006648Y-97815284D01*
X153356205Y-97814716D01*
X152755057Y-98063106D01*
X152692803Y-98125251D01*
X152678327Y-98090302D01*
X152499699Y-97911673D01*
X152266310Y-97815000D01*
X151425750Y-97815000D01*
X151267000Y-97973750D01*
X151267000Y-99323000D01*
X151287000Y-99323000D01*
X151287000Y-99577000D01*
X151267000Y-99577000D01*
X151267000Y-99597000D01*
X151013000Y-99597000D01*
X151013000Y-99577000D01*
X149663750Y-99577000D01*
X149505000Y-99735750D01*
X149505000Y-100215000D01*
X135178711Y-100215000D01*
X134249172Y-99285460D01*
X134422186Y-99169856D01*
X134430000Y-99158162D01*
X134437814Y-99169856D01*
X135016910Y-99556795D01*
X135700000Y-99692670D01*
X136383090Y-99556795D01*
X136588691Y-99419417D01*
X136730301Y-99561027D01*
X136963690Y-99657700D01*
X137954250Y-99657700D01*
X138113000Y-99498950D01*
X138113000Y-97999700D01*
X138367000Y-97999700D01*
X138367000Y-99498950D01*
X138525750Y-99657700D01*
X139516310Y-99657700D01*
X139749699Y-99561027D01*
X139928327Y-99382398D01*
X140025000Y-99149009D01*
X140025000Y-98323691D01*
X149505000Y-98323691D01*
X149505000Y-99164250D01*
X149663750Y-99323000D01*
X151013000Y-99323000D01*
X151013000Y-97973750D01*
X150854250Y-97815000D01*
X150013690Y-97815000D01*
X149780301Y-97911673D01*
X149601673Y-98090302D01*
X149505000Y-98323691D01*
X140025000Y-98323691D01*
X140025000Y-98158450D01*
X139866250Y-97999700D01*
X138367000Y-97999700D01*
X138113000Y-97999700D01*
X138093000Y-97999700D01*
X138093000Y-97745700D01*
X138113000Y-97745700D01*
X138113000Y-96246450D01*
X138367000Y-96246450D01*
X138367000Y-97745700D01*
X139866250Y-97745700D01*
X140025000Y-97586950D01*
X140025000Y-96596391D01*
X139928327Y-96363002D01*
X139749699Y-96184373D01*
X139516310Y-96087700D01*
X138525750Y-96087700D01*
X138367000Y-96246450D01*
X138113000Y-96246450D01*
X137954250Y-96087700D01*
X136963690Y-96087700D01*
X136735000Y-96182427D01*
X136735000Y-95978712D01*
X136928711Y-95785000D01*
X182571288Y-95785000D01*
X184683179Y-97896891D01*
X184486648Y-97815284D01*
X183836205Y-97814716D01*
X183235057Y-98063106D01*
X182774722Y-98522637D01*
X182619425Y-98896634D01*
X182582767Y-98807914D01*
X182263765Y-98488355D01*
X181846756Y-98315197D01*
X181395225Y-98314803D01*
X180977914Y-98487233D01*
X180658355Y-98806235D01*
X180485197Y-99223244D01*
X180484803Y-99674775D01*
X180657233Y-100092086D01*
X180976235Y-100411645D01*
X181393244Y-100584803D01*
X181844775Y-100585197D01*
X182262086Y-100412767D01*
X182581645Y-100093765D01*
X182619378Y-100002894D01*
X182773106Y-100374943D01*
X183232637Y-100835278D01*
X183833352Y-101084716D01*
X184483795Y-101085284D01*
X185084943Y-100836894D01*
X185430199Y-100492241D01*
X185772637Y-100835278D01*
X186373352Y-101084716D01*
X187023795Y-101085284D01*
X187624943Y-100836894D01*
X187970199Y-100492241D01*
X188312637Y-100835278D01*
X188913352Y-101084716D01*
X189563795Y-101085284D01*
X190164943Y-100836894D01*
X190510199Y-100492241D01*
X190852637Y-100835278D01*
X191453352Y-101084716D01*
X192103795Y-101085284D01*
X192704943Y-100836894D01*
X193050199Y-100492241D01*
X193392637Y-100835278D01*
X193993352Y-101084716D01*
X194643795Y-101085284D01*
X195244943Y-100836894D01*
X195590199Y-100492241D01*
X195932637Y-100835278D01*
X196533352Y-101084716D01*
X197183795Y-101085284D01*
X197784943Y-100836894D01*
X198245278Y-100377363D01*
X198494716Y-99776648D01*
X198495284Y-99126205D01*
X198246894Y-98525057D01*
X197787363Y-98064722D01*
X197186648Y-97815284D01*
X196536205Y-97814716D01*
X195935057Y-98063106D01*
X195589801Y-98407759D01*
X195247363Y-98064722D01*
X194646648Y-97815284D01*
X193996205Y-97814716D01*
X193395057Y-98063106D01*
X193049801Y-98407759D01*
X192707363Y-98064722D01*
X192106648Y-97815284D01*
X191456205Y-97814716D01*
X190855057Y-98063106D01*
X190509801Y-98407759D01*
X190275000Y-98172547D01*
X190275000Y-95740005D01*
X190275001Y-95740000D01*
X190196215Y-95343923D01*
X189971856Y-95008144D01*
X189971853Y-95008142D01*
X182981856Y-88018144D01*
X182646077Y-87793785D01*
X182250000Y-87714999D01*
X182249995Y-87715000D01*
X142258711Y-87715000D01*
X131240297Y-76696585D01*
X131303090Y-76684095D01*
X131882186Y-76297156D01*
X131890000Y-76285462D01*
X131897814Y-76297156D01*
X132476910Y-76684095D01*
X133160000Y-76819970D01*
X133843090Y-76684095D01*
X134422186Y-76297156D01*
X134430000Y-76285462D01*
X134437814Y-76297156D01*
X135016910Y-76684095D01*
X135700000Y-76819970D01*
X136383090Y-76684095D01*
X136962186Y-76297156D01*
X136970000Y-76285462D01*
X136977814Y-76297156D01*
X137556910Y-76684095D01*
X138240000Y-76819970D01*
X138923090Y-76684095D01*
X139502186Y-76297156D01*
X139889125Y-75718060D01*
X140025000Y-75034970D01*
X140025000Y-74965030D01*
X139889125Y-74281940D01*
X139502186Y-73702844D01*
X138923090Y-73315905D01*
X138240000Y-73180030D01*
X137556910Y-73315905D01*
X136977814Y-73702844D01*
X136970000Y-73714538D01*
X136962186Y-73702844D01*
X136383090Y-73315905D01*
X135700000Y-73180030D01*
X135016910Y-73315905D01*
X134437814Y-73702844D01*
X134430000Y-73714538D01*
X134422186Y-73702844D01*
X134195000Y-73551043D01*
X134195000Y-73018712D01*
X134678711Y-72535000D01*
X150071288Y-72535000D01*
X150105000Y-72568711D01*
X150105000Y-72772971D01*
X149754722Y-73122637D01*
X149505284Y-73723352D01*
X149504716Y-74373795D01*
X149753106Y-74974943D01*
X150212637Y-75435278D01*
X150813352Y-75684716D01*
X151463795Y-75685284D01*
X152064943Y-75436894D01*
X152410199Y-75092241D01*
X152752637Y-75435278D01*
X153353352Y-75684716D01*
X154003795Y-75685284D01*
X154604943Y-75436894D01*
X154950199Y-75092241D01*
X155292637Y-75435278D01*
X155893352Y-75684716D01*
X156543795Y-75685284D01*
X157144943Y-75436894D01*
X157490199Y-75092241D01*
X157832637Y-75435278D01*
X158433352Y-75684716D01*
X159083795Y-75685284D01*
X159684943Y-75436894D01*
X160030199Y-75092241D01*
X160265000Y-75327453D01*
X160265000Y-76799995D01*
X160264999Y-76800000D01*
X160343785Y-77196077D01*
X160568144Y-77531856D01*
X164518142Y-81481853D01*
X164518144Y-81481856D01*
X164853923Y-81706215D01*
X165250000Y-81785001D01*
X165250005Y-81785000D01*
X199999995Y-81785000D01*
X200000000Y-81785001D01*
X200396077Y-81706215D01*
X200731856Y-81481856D01*
X206731853Y-75481858D01*
X206731856Y-75481856D01*
X206936015Y-75176309D01*
X206956215Y-75146078D01*
X207035000Y-74750000D01*
X207035000Y-53750000D01*
X206956215Y-53353923D01*
X206956215Y-53353922D01*
X206814517Y-53141856D01*
X206731856Y-53018144D01*
X206731853Y-53018142D01*
X203981856Y-50268144D01*
X203646077Y-50043785D01*
X203250000Y-49964999D01*
X203249995Y-49965000D01*
X199648976Y-49965000D01*
X199414372Y-49729986D01*
X199672367Y-49472441D01*
X199944689Y-48816616D01*
X199945309Y-48106499D01*
X199674132Y-47450200D01*
X199195000Y-46970231D01*
X199195000Y-39160005D01*
X199195001Y-39160000D01*
X199116215Y-38763923D01*
X199094789Y-38731856D01*
X198891856Y-38428144D01*
X198891853Y-38428142D01*
X197731856Y-37268144D01*
X197396077Y-37043785D01*
X197000000Y-36964999D01*
X196999995Y-36965000D01*
X172750005Y-36965000D01*
X172750000Y-36964999D01*
X172353923Y-37043785D01*
X172018144Y-37268144D01*
X172018142Y-37268147D01*
X149518144Y-59768144D01*
X149293785Y-60103923D01*
X149214999Y-60500000D01*
X149215000Y-60500005D01*
X149215000Y-70465000D01*
X134250005Y-70465000D01*
X134250000Y-70464999D01*
X133853923Y-70543785D01*
X133518144Y-70768144D01*
X133518142Y-70768147D01*
X132428144Y-71858144D01*
X132203785Y-72193923D01*
X132124999Y-72590000D01*
X132125000Y-72590005D01*
X132125000Y-73551043D01*
X131897814Y-73702844D01*
X131890000Y-73714538D01*
X131882186Y-73702844D01*
X131303090Y-73315905D01*
X130620000Y-73180030D01*
X129936910Y-73315905D01*
X129357814Y-73702844D01*
X129350000Y-73714538D01*
X129342186Y-73702844D01*
X128763090Y-73315905D01*
X128080000Y-73180030D01*
X127396910Y-73315905D01*
X126817814Y-73702844D01*
X126810000Y-73714538D01*
X126802186Y-73702844D01*
X126223090Y-73315905D01*
X125540000Y-73180030D01*
X124856910Y-73315905D01*
X124277814Y-73702844D01*
X124257551Y-73733170D01*
X124012441Y-73487633D01*
X123356616Y-73215311D01*
X122646499Y-73214691D01*
X121990200Y-73485868D01*
X121487633Y-73987559D01*
X121215311Y-74643384D01*
X121214691Y-75353501D01*
X115710000Y-75353501D01*
X115710000Y-35710000D01*
X209290000Y-35710000D01*
X209290000Y-109290000D01*
X209290000Y-109290000D01*
G37*
X209290000Y-109290000D02*
X115710000Y-109290000D01*
X115710000Y-98158450D01*
X121215000Y-98158450D01*
X121215000Y-99149009D01*
X121311673Y-99382398D01*
X121490301Y-99561027D01*
X121723690Y-99657700D01*
X122714250Y-99657700D01*
X122873000Y-99498950D01*
X122873000Y-97999700D01*
X121373750Y-97999700D01*
X121215000Y-98158450D01*
X115710000Y-98158450D01*
X115710000Y-96596391D01*
X121215000Y-96596391D01*
X121215000Y-97586950D01*
X121373750Y-97745700D01*
X122873000Y-97745700D01*
X122873000Y-96246450D01*
X122714250Y-96087700D01*
X121723690Y-96087700D01*
X121490301Y-96184373D01*
X121311673Y-96363002D01*
X121215000Y-96596391D01*
X115710000Y-96596391D01*
X115710000Y-75353501D01*
X121214691Y-75353501D01*
X121485868Y-76009800D01*
X121987559Y-76512367D01*
X122643384Y-76784689D01*
X123353501Y-76785309D01*
X124009800Y-76514132D01*
X124257544Y-76266820D01*
X124277814Y-76297156D01*
X124856910Y-76684095D01*
X125540000Y-76819970D01*
X126223090Y-76684095D01*
X126802186Y-76297156D01*
X126810000Y-76285462D01*
X126817814Y-76297156D01*
X127396910Y-76684095D01*
X128080000Y-76819970D01*
X128377151Y-76760863D01*
X141098142Y-89481853D01*
X141098144Y-89481856D01*
X141299429Y-89616349D01*
X141433922Y-89706215D01*
X141830000Y-89785000D01*
X181821288Y-89785000D01*
X188205000Y-96168711D01*
X188205000Y-98172971D01*
X187969801Y-98407759D01*
X187666078Y-98103504D01*
X187656215Y-98053922D01*
X187496762Y-97815284D01*
X187431856Y-97718144D01*
X187431853Y-97718142D01*
X183731856Y-94018144D01*
X183396077Y-93793785D01*
X183000000Y-93714999D01*
X182999995Y-93715000D01*
X136500005Y-93715000D01*
X136500000Y-93714999D01*
X136103923Y-93793785D01*
X135768144Y-94018144D01*
X135768142Y-94018147D01*
X134968144Y-94818144D01*
X134743785Y-95153923D01*
X134664999Y-95550000D01*
X134665000Y-95550005D01*
X134665000Y-96423743D01*
X134437814Y-96575544D01*
X134430000Y-96587238D01*
X134422186Y-96575544D01*
X133843090Y-96188605D01*
X133160000Y-96052730D01*
X132476910Y-96188605D01*
X131897814Y-96575544D01*
X131890000Y-96587238D01*
X131882186Y-96575544D01*
X131303090Y-96188605D01*
X130620000Y-96052730D01*
X129936910Y-96188605D01*
X129357814Y-96575544D01*
X129350000Y-96587238D01*
X129342186Y-96575544D01*
X128763090Y-96188605D01*
X128080000Y-96052730D01*
X127396910Y-96188605D01*
X126817814Y-96575544D01*
X126810000Y-96587238D01*
X126802186Y-96575544D01*
X126223090Y-96188605D01*
X125540000Y-96052730D01*
X124856910Y-96188605D01*
X124651309Y-96325983D01*
X124509699Y-96184373D01*
X124276310Y-96087700D01*
X123285750Y-96087700D01*
X123127000Y-96246450D01*
X123127000Y-97745700D01*
X123147000Y-97745700D01*
X123147000Y-97999700D01*
X123127000Y-97999700D01*
X123127000Y-99498950D01*
X123285750Y-99657700D01*
X124276310Y-99657700D01*
X124505000Y-99562973D01*
X124505000Y-101039995D01*
X124504999Y-101040000D01*
X124583785Y-101436077D01*
X124808144Y-101771856D01*
X129018142Y-105981853D01*
X129018144Y-105981856D01*
X129353923Y-106206215D01*
X129750000Y-106285001D01*
X129750005Y-106285000D01*
X173999995Y-106285000D01*
X174000000Y-106285001D01*
X174396077Y-106206215D01*
X174731856Y-105981856D01*
X177271853Y-103441858D01*
X177271856Y-103441856D01*
X177412173Y-103231856D01*
X177496215Y-103106078D01*
X177575000Y-102710000D01*
X177575000Y-100727029D01*
X177925278Y-100377363D01*
X178080575Y-100003366D01*
X178117233Y-100092086D01*
X178436235Y-100411645D01*
X178853244Y-100584803D01*
X179304775Y-100585197D01*
X179722086Y-100412767D01*
X180041645Y-100093765D01*
X180214803Y-99676756D01*
X180215197Y-99225225D01*
X180042767Y-98807914D01*
X179723765Y-98488355D01*
X179306756Y-98315197D01*
X178855225Y-98314803D01*
X178437914Y-98487233D01*
X178118355Y-98806235D01*
X178080622Y-98897106D01*
X177926894Y-98525057D01*
X177467363Y-98064722D01*
X176866648Y-97815284D01*
X176216205Y-97814716D01*
X175615057Y-98063106D01*
X175269801Y-98407759D01*
X174927363Y-98064722D01*
X174326648Y-97815284D01*
X173676205Y-97814716D01*
X173075057Y-98063106D01*
X172729801Y-98407759D01*
X172387363Y-98064722D01*
X171786648Y-97815284D01*
X171136205Y-97814716D01*
X170535057Y-98063106D01*
X170189801Y-98407759D01*
X169847363Y-98064722D01*
X169246648Y-97815284D01*
X168596205Y-97814716D01*
X167995057Y-98063106D01*
X167649801Y-98407759D01*
X167307363Y-98064722D01*
X166706648Y-97815284D01*
X166056205Y-97814716D01*
X165455057Y-98063106D01*
X165109801Y-98407759D01*
X164767363Y-98064722D01*
X164166648Y-97815284D01*
X163516205Y-97814716D01*
X162915057Y-98063106D01*
X162569801Y-98407759D01*
X162227363Y-98064722D01*
X161626648Y-97815284D01*
X160976205Y-97814716D01*
X160375057Y-98063106D01*
X160029801Y-98407759D01*
X159687363Y-98064722D01*
X159086648Y-97815284D01*
X158436205Y-97814716D01*
X157835057Y-98063106D01*
X157489801Y-98407759D01*
X157147363Y-98064722D01*
X156546648Y-97815284D01*
X155896205Y-97814716D01*
X155295057Y-98063106D01*
X154949801Y-98407759D01*
X154607363Y-98064722D01*
X154006648Y-97815284D01*
X153356205Y-97814716D01*
X152755057Y-98063106D01*
X152692803Y-98125251D01*
X152678327Y-98090302D01*
X152499699Y-97911673D01*
X152266310Y-97815000D01*
X151425750Y-97815000D01*
X151267000Y-97973750D01*
X151267000Y-99323000D01*
X151287000Y-99323000D01*
X151287000Y-99577000D01*
X151267000Y-99577000D01*
X151267000Y-99597000D01*
X151013000Y-99597000D01*
X151013000Y-99577000D01*
X149663750Y-99577000D01*
X149505000Y-99735750D01*
X149505000Y-100215000D01*
X135178711Y-100215000D01*
X134249172Y-99285460D01*
X134422186Y-99169856D01*
X134430000Y-99158162D01*
X134437814Y-99169856D01*
X135016910Y-99556795D01*
X135700000Y-99692670D01*
X136383090Y-99556795D01*
X136588691Y-99419417D01*
X136730301Y-99561027D01*
X136963690Y-99657700D01*
X137954250Y-99657700D01*
X138113000Y-99498950D01*
X138113000Y-97999700D01*
X138367000Y-97999700D01*
X138367000Y-99498950D01*
X138525750Y-99657700D01*
X139516310Y-99657700D01*
X139749699Y-99561027D01*
X139928327Y-99382398D01*
X140025000Y-99149009D01*
X140025000Y-98323691D01*
X149505000Y-98323691D01*
X149505000Y-99164250D01*
X149663750Y-99323000D01*
X151013000Y-99323000D01*
X151013000Y-97973750D01*
X150854250Y-97815000D01*
X150013690Y-97815000D01*
X149780301Y-97911673D01*
X149601673Y-98090302D01*
X149505000Y-98323691D01*
X140025000Y-98323691D01*
X140025000Y-98158450D01*
X139866250Y-97999700D01*
X138367000Y-97999700D01*
X138113000Y-97999700D01*
X138093000Y-97999700D01*
X138093000Y-97745700D01*
X138113000Y-97745700D01*
X138113000Y-96246450D01*
X138367000Y-96246450D01*
X138367000Y-97745700D01*
X139866250Y-97745700D01*
X140025000Y-97586950D01*
X140025000Y-96596391D01*
X139928327Y-96363002D01*
X139749699Y-96184373D01*
X139516310Y-96087700D01*
X138525750Y-96087700D01*
X138367000Y-96246450D01*
X138113000Y-96246450D01*
X137954250Y-96087700D01*
X136963690Y-96087700D01*
X136735000Y-96182427D01*
X136735000Y-95978712D01*
X136928711Y-95785000D01*
X182571288Y-95785000D01*
X184683179Y-97896891D01*
X184486648Y-97815284D01*
X183836205Y-97814716D01*
X183235057Y-98063106D01*
X182774722Y-98522637D01*
X182619425Y-98896634D01*
X182582767Y-98807914D01*
X182263765Y-98488355D01*
X181846756Y-98315197D01*
X181395225Y-98314803D01*
X180977914Y-98487233D01*
X180658355Y-98806235D01*
X180485197Y-99223244D01*
X180484803Y-99674775D01*
X180657233Y-100092086D01*
X180976235Y-100411645D01*
X181393244Y-100584803D01*
X181844775Y-100585197D01*
X182262086Y-100412767D01*
X182581645Y-100093765D01*
X182619378Y-100002894D01*
X182773106Y-100374943D01*
X183232637Y-100835278D01*
X183833352Y-101084716D01*
X184483795Y-101085284D01*
X185084943Y-100836894D01*
X185430199Y-100492241D01*
X185772637Y-100835278D01*
X186373352Y-101084716D01*
X187023795Y-101085284D01*
X187624943Y-100836894D01*
X187970199Y-100492241D01*
X188312637Y-100835278D01*
X188913352Y-101084716D01*
X189563795Y-101085284D01*
X190164943Y-100836894D01*
X190510199Y-100492241D01*
X190852637Y-100835278D01*
X191453352Y-101084716D01*
X192103795Y-101085284D01*
X192704943Y-100836894D01*
X193050199Y-100492241D01*
X193392637Y-100835278D01*
X193993352Y-101084716D01*
X194643795Y-101085284D01*
X195244943Y-100836894D01*
X195590199Y-100492241D01*
X195932637Y-100835278D01*
X196533352Y-101084716D01*
X197183795Y-101085284D01*
X197784943Y-100836894D01*
X198245278Y-100377363D01*
X198494716Y-99776648D01*
X198495284Y-99126205D01*
X198246894Y-98525057D01*
X197787363Y-98064722D01*
X197186648Y-97815284D01*
X196536205Y-97814716D01*
X195935057Y-98063106D01*
X195589801Y-98407759D01*
X195247363Y-98064722D01*
X194646648Y-97815284D01*
X193996205Y-97814716D01*
X193395057Y-98063106D01*
X193049801Y-98407759D01*
X192707363Y-98064722D01*
X192106648Y-97815284D01*
X191456205Y-97814716D01*
X190855057Y-98063106D01*
X190509801Y-98407759D01*
X190275000Y-98172547D01*
X190275000Y-95740005D01*
X190275001Y-95740000D01*
X190196215Y-95343923D01*
X189971856Y-95008144D01*
X189971853Y-95008142D01*
X182981856Y-88018144D01*
X182646077Y-87793785D01*
X182250000Y-87714999D01*
X182249995Y-87715000D01*
X142258711Y-87715000D01*
X131240297Y-76696585D01*
X131303090Y-76684095D01*
X131882186Y-76297156D01*
X131890000Y-76285462D01*
X131897814Y-76297156D01*
X132476910Y-76684095D01*
X133160000Y-76819970D01*
X133843090Y-76684095D01*
X134422186Y-76297156D01*
X134430000Y-76285462D01*
X134437814Y-76297156D01*
X135016910Y-76684095D01*
X135700000Y-76819970D01*
X136383090Y-76684095D01*
X136962186Y-76297156D01*
X136970000Y-76285462D01*
X136977814Y-76297156D01*
X137556910Y-76684095D01*
X138240000Y-76819970D01*
X138923090Y-76684095D01*
X139502186Y-76297156D01*
X139889125Y-75718060D01*
X140025000Y-75034970D01*
X140025000Y-74965030D01*
X139889125Y-74281940D01*
X139502186Y-73702844D01*
X138923090Y-73315905D01*
X138240000Y-73180030D01*
X137556910Y-73315905D01*
X136977814Y-73702844D01*
X136970000Y-73714538D01*
X136962186Y-73702844D01*
X136383090Y-73315905D01*
X135700000Y-73180030D01*
X135016910Y-73315905D01*
X134437814Y-73702844D01*
X134430000Y-73714538D01*
X134422186Y-73702844D01*
X134195000Y-73551043D01*
X134195000Y-73018712D01*
X134678711Y-72535000D01*
X150071288Y-72535000D01*
X150105000Y-72568711D01*
X150105000Y-72772971D01*
X149754722Y-73122637D01*
X149505284Y-73723352D01*
X149504716Y-74373795D01*
X149753106Y-74974943D01*
X150212637Y-75435278D01*
X150813352Y-75684716D01*
X151463795Y-75685284D01*
X152064943Y-75436894D01*
X152410199Y-75092241D01*
X152752637Y-75435278D01*
X153353352Y-75684716D01*
X154003795Y-75685284D01*
X154604943Y-75436894D01*
X154950199Y-75092241D01*
X155292637Y-75435278D01*
X155893352Y-75684716D01*
X156543795Y-75685284D01*
X157144943Y-75436894D01*
X157490199Y-75092241D01*
X157832637Y-75435278D01*
X158433352Y-75684716D01*
X159083795Y-75685284D01*
X159684943Y-75436894D01*
X160030199Y-75092241D01*
X160265000Y-75327453D01*
X160265000Y-76799995D01*
X160264999Y-76800000D01*
X160343785Y-77196077D01*
X160568144Y-77531856D01*
X164518142Y-81481853D01*
X164518144Y-81481856D01*
X164853923Y-81706215D01*
X165250000Y-81785001D01*
X165250005Y-81785000D01*
X199999995Y-81785000D01*
X200000000Y-81785001D01*
X200396077Y-81706215D01*
X200731856Y-81481856D01*
X206731853Y-75481858D01*
X206731856Y-75481856D01*
X206936015Y-75176309D01*
X206956215Y-75146078D01*
X207035000Y-74750000D01*
X207035000Y-53750000D01*
X206956215Y-53353923D01*
X206956215Y-53353922D01*
X206814517Y-53141856D01*
X206731856Y-53018144D01*
X206731853Y-53018142D01*
X203981856Y-50268144D01*
X203646077Y-50043785D01*
X203250000Y-49964999D01*
X203249995Y-49965000D01*
X199648976Y-49965000D01*
X199414372Y-49729986D01*
X199672367Y-49472441D01*
X199944689Y-48816616D01*
X199945309Y-48106499D01*
X199674132Y-47450200D01*
X199195000Y-46970231D01*
X199195000Y-39160005D01*
X199195001Y-39160000D01*
X199116215Y-38763923D01*
X199094789Y-38731856D01*
X198891856Y-38428144D01*
X198891853Y-38428142D01*
X197731856Y-37268144D01*
X197396077Y-37043785D01*
X197000000Y-36964999D01*
X196999995Y-36965000D01*
X172750005Y-36965000D01*
X172750000Y-36964999D01*
X172353923Y-37043785D01*
X172018144Y-37268144D01*
X172018142Y-37268147D01*
X149518144Y-59768144D01*
X149293785Y-60103923D01*
X149214999Y-60500000D01*
X149215000Y-60500005D01*
X149215000Y-70465000D01*
X134250005Y-70465000D01*
X134250000Y-70464999D01*
X133853923Y-70543785D01*
X133518144Y-70768144D01*
X133518142Y-70768147D01*
X132428144Y-71858144D01*
X132203785Y-72193923D01*
X132124999Y-72590000D01*
X132125000Y-72590005D01*
X132125000Y-73551043D01*
X131897814Y-73702844D01*
X131890000Y-73714538D01*
X131882186Y-73702844D01*
X131303090Y-73315905D01*
X130620000Y-73180030D01*
X129936910Y-73315905D01*
X129357814Y-73702844D01*
X129350000Y-73714538D01*
X129342186Y-73702844D01*
X128763090Y-73315905D01*
X128080000Y-73180030D01*
X127396910Y-73315905D01*
X126817814Y-73702844D01*
X126810000Y-73714538D01*
X126802186Y-73702844D01*
X126223090Y-73315905D01*
X125540000Y-73180030D01*
X124856910Y-73315905D01*
X124277814Y-73702844D01*
X124257551Y-73733170D01*
X124012441Y-73487633D01*
X123356616Y-73215311D01*
X122646499Y-73214691D01*
X121990200Y-73485868D01*
X121487633Y-73987559D01*
X121215311Y-74643384D01*
X121214691Y-75353501D01*
X115710000Y-75353501D01*
X115710000Y-35710000D01*
X209290000Y-35710000D01*
X209290000Y-109290000D01*
G36*
X197125000Y-39588711D02*
X197125000Y-46971024D01*
X196647633Y-47447559D01*
X196375311Y-48103384D01*
X196374691Y-48813501D01*
X196645868Y-49469800D01*
X196905628Y-49730014D01*
X196647633Y-49987559D01*
X196375311Y-50643384D01*
X196374691Y-51353501D01*
X196600931Y-51901044D01*
X196471673Y-52030301D01*
X196375000Y-52263690D01*
X196375000Y-53254250D01*
X196533750Y-53413000D01*
X198033000Y-53413000D01*
X198033000Y-53393000D01*
X198287000Y-53393000D01*
X198287000Y-53413000D01*
X199786250Y-53413000D01*
X199945000Y-53254250D01*
X199945000Y-52263690D01*
X199850273Y-52035000D01*
X202821288Y-52035000D01*
X204965000Y-54178711D01*
X204965000Y-74321289D01*
X199571288Y-79715000D01*
X165678711Y-79715000D01*
X162335000Y-76371288D01*
X162335000Y-75327029D01*
X162570199Y-75092241D01*
X162912637Y-75435278D01*
X163513352Y-75684716D01*
X164163795Y-75685284D01*
X164764943Y-75436894D01*
X165110199Y-75092241D01*
X165452637Y-75435278D01*
X166053352Y-75684716D01*
X166703795Y-75685284D01*
X167304943Y-75436894D01*
X167650199Y-75092241D01*
X167992637Y-75435278D01*
X168593352Y-75684716D01*
X169243795Y-75685284D01*
X169844943Y-75436894D01*
X170190199Y-75092241D01*
X170532637Y-75435278D01*
X171133352Y-75684716D01*
X171783795Y-75685284D01*
X172384943Y-75436894D01*
X172730199Y-75092241D01*
X173072637Y-75435278D01*
X173673352Y-75684716D01*
X174323795Y-75685284D01*
X174924943Y-75436894D01*
X175270199Y-75092241D01*
X175612637Y-75435278D01*
X176213352Y-75684716D01*
X176863795Y-75685284D01*
X177464943Y-75436894D01*
X177810199Y-75092241D01*
X178152637Y-75435278D01*
X178753352Y-75684716D01*
X179403795Y-75685284D01*
X180004943Y-75436894D01*
X180350199Y-75092241D01*
X180692637Y-75435278D01*
X181293352Y-75684716D01*
X181943795Y-75685284D01*
X182544943Y-75436894D01*
X182607197Y-75374749D01*
X182621673Y-75409698D01*
X182800301Y-75588327D01*
X183033690Y-75685000D01*
X183874250Y-75685000D01*
X184033000Y-75526250D01*
X184033000Y-74177000D01*
X184013000Y-74177000D01*
X184013000Y-73923000D01*
X184033000Y-73923000D01*
X184033000Y-72573750D01*
X183874250Y-72415000D01*
X183033690Y-72415000D01*
X182800301Y-72511673D01*
X182621673Y-72690302D01*
X182607370Y-72724834D01*
X182547363Y-72664722D01*
X181946648Y-72415284D01*
X181296205Y-72414716D01*
X180695057Y-72663106D01*
X180349801Y-73007759D01*
X180007363Y-72664722D01*
X179406648Y-72415284D01*
X178756205Y-72414716D01*
X178155057Y-72663106D01*
X177809801Y-73007759D01*
X177467363Y-72664722D01*
X176866648Y-72415284D01*
X176216205Y-72414716D01*
X175615057Y-72663106D01*
X175269801Y-73007759D01*
X174927363Y-72664722D01*
X174326648Y-72415284D01*
X173676205Y-72414716D01*
X173075057Y-72663106D01*
X172729801Y-73007759D01*
X172387363Y-72664722D01*
X171786648Y-72415284D01*
X171136205Y-72414716D01*
X170535057Y-72663106D01*
X170189801Y-73007759D01*
X169847363Y-72664722D01*
X169246648Y-72415284D01*
X168596205Y-72414716D01*
X167995057Y-72663106D01*
X167649801Y-73007759D01*
X167307363Y-72664722D01*
X166706648Y-72415284D01*
X166056205Y-72414716D01*
X165455057Y-72663106D01*
X165109801Y-73007759D01*
X164875000Y-72772547D01*
X164875000Y-58997265D01*
X179427170Y-58997265D01*
X179716578Y-59697686D01*
X180251995Y-60234039D01*
X180951910Y-60524668D01*
X181709765Y-60525330D01*
X182410186Y-60235922D01*
X182946539Y-59700505D01*
X183237168Y-59000590D01*
X183237830Y-58242735D01*
X182948422Y-57542314D01*
X182413005Y-57005961D01*
X181713090Y-56715332D01*
X180955235Y-56714670D01*
X180254814Y-57004078D01*
X179718461Y-57539495D01*
X179427832Y-58239410D01*
X179427170Y-58997265D01*
X164875000Y-58997265D01*
X164875000Y-54175000D01*
X173704833Y-54175000D01*
X173867350Y-54992029D01*
X174330160Y-55684673D01*
X175022804Y-56147483D01*
X175839833Y-56310000D01*
X175923487Y-56310000D01*
X176740516Y-56147483D01*
X177433160Y-55684673D01*
X177895970Y-54992029D01*
X178058487Y-54175000D01*
X177895970Y-53357971D01*
X177433160Y-52665327D01*
X176740516Y-52202517D01*
X175923487Y-52040000D01*
X175839833Y-52040000D01*
X175022804Y-52202517D01*
X174330160Y-52665327D01*
X173867350Y-53357971D01*
X173704833Y-54175000D01*
X164875000Y-54175000D01*
X164875000Y-52838712D01*
X169888711Y-47825000D01*
X173704833Y-47825000D01*
X173867350Y-48642029D01*
X174330160Y-49334673D01*
X175022804Y-49797483D01*
X175839833Y-49960000D01*
X175923487Y-49960000D01*
X176448514Y-49855566D01*
X178574802Y-51981853D01*
X178574804Y-51981856D01*
X178776089Y-52116349D01*
X178910582Y-52206215D01*
X179306660Y-52285000D01*
X179397699Y-52285000D01*
X178828500Y-52665327D01*
X178365690Y-53357971D01*
X178203173Y-54175000D01*
X178365690Y-54992029D01*
X178828500Y-55684673D01*
X179521144Y-56147483D01*
X180338173Y-56310000D01*
X180421827Y-56310000D01*
X181238856Y-56147483D01*
X181931500Y-55684673D01*
X182394310Y-54992029D01*
X182556827Y-54175000D01*
X182394310Y-53357971D01*
X181931500Y-52665327D01*
X181362301Y-52285000D01*
X181571288Y-52285000D01*
X185665000Y-56378711D01*
X185665000Y-72656975D01*
X185519699Y-72511673D01*
X185286310Y-72415000D01*
X184445750Y-72415000D01*
X184287000Y-72573750D01*
X184287000Y-73923000D01*
X184307000Y-73923000D01*
X184307000Y-74177000D01*
X184287000Y-74177000D01*
X184287000Y-75526250D01*
X184445750Y-75685000D01*
X185286310Y-75685000D01*
X185519699Y-75588327D01*
X185698327Y-75409698D01*
X185712630Y-75375166D01*
X185772637Y-75435278D01*
X186373352Y-75684716D01*
X187023795Y-75685284D01*
X187624943Y-75436894D01*
X187970199Y-75092241D01*
X188312637Y-75435278D01*
X188913352Y-75684716D01*
X189563795Y-75685284D01*
X190164943Y-75436894D01*
X190510199Y-75092241D01*
X190852637Y-75435278D01*
X191453352Y-75684716D01*
X192103795Y-75685284D01*
X192704943Y-75436894D01*
X193050199Y-75092241D01*
X193392637Y-75435278D01*
X193993352Y-75684716D01*
X194643795Y-75685284D01*
X195244943Y-75436894D01*
X195590199Y-75092241D01*
X195932637Y-75435278D01*
X196533352Y-75684716D01*
X197183795Y-75685284D01*
X197784943Y-75436894D01*
X198245278Y-74977363D01*
X198494716Y-74376648D01*
X198495284Y-73726205D01*
X198246894Y-73125057D01*
X197787363Y-72664722D01*
X197186648Y-72415284D01*
X196536205Y-72414716D01*
X195935057Y-72663106D01*
X195589801Y-73007759D01*
X195247363Y-72664722D01*
X194646648Y-72415284D01*
X193996205Y-72414716D01*
X193395057Y-72663106D01*
X193049801Y-73007759D01*
X192707363Y-72664722D01*
X192106648Y-72415284D01*
X191456205Y-72414716D01*
X190855057Y-72663106D01*
X190509801Y-73007759D01*
X190167363Y-72664722D01*
X189566648Y-72415284D01*
X188916205Y-72414716D01*
X188315057Y-72663106D01*
X187969801Y-73007759D01*
X187735000Y-72772547D01*
X187735000Y-58997265D01*
X192762170Y-58997265D01*
X193051578Y-59697686D01*
X193586995Y-60234039D01*
X194286910Y-60524668D01*
X195044765Y-60525330D01*
X195745186Y-60235922D01*
X196281539Y-59700505D01*
X196572168Y-59000590D01*
X196572830Y-58242735D01*
X196283422Y-57542314D01*
X195748005Y-57005961D01*
X195048090Y-56715332D01*
X194290235Y-56714670D01*
X193589814Y-57004078D01*
X193053461Y-57539495D01*
X192762832Y-58239410D01*
X192762170Y-58997265D01*
X187735000Y-58997265D01*
X187735000Y-55950005D01*
X187735001Y-55950000D01*
X187656215Y-55553923D01*
X187503254Y-55325000D01*
X187431856Y-55218144D01*
X187431853Y-55218142D01*
X186039462Y-53825750D01*
X196375000Y-53825750D01*
X196375000Y-54816310D01*
X196471673Y-55049699D01*
X196650302Y-55228327D01*
X196883691Y-55325000D01*
X197874250Y-55325000D01*
X198033000Y-55166250D01*
X198033000Y-53667000D01*
X198287000Y-53667000D01*
X198287000Y-55166250D01*
X198445750Y-55325000D01*
X199436309Y-55325000D01*
X199669698Y-55228327D01*
X199848327Y-55049699D01*
X199945000Y-54816310D01*
X199945000Y-53825750D01*
X199786250Y-53667000D01*
X198287000Y-53667000D01*
X198033000Y-53667000D01*
X196533750Y-53667000D01*
X196375000Y-53825750D01*
X186039462Y-53825750D01*
X182731856Y-50518144D01*
X182396077Y-50293785D01*
X182000000Y-50214999D01*
X181999995Y-50215000D01*
X179735371Y-50215000D01*
X179480371Y-49960000D01*
X180094250Y-49960000D01*
X180253000Y-49801250D01*
X180253000Y-47952000D01*
X180507000Y-47952000D01*
X180507000Y-49801250D01*
X180665750Y-49960000D01*
X182006309Y-49960000D01*
X182239698Y-49863327D01*
X182418327Y-49684699D01*
X182515000Y-49451310D01*
X182515000Y-48110750D01*
X182356250Y-47952000D01*
X180507000Y-47952000D01*
X180253000Y-47952000D01*
X178403750Y-47952000D01*
X178245000Y-48110750D01*
X178245000Y-48724628D01*
X177940174Y-48419802D01*
X178058487Y-47825000D01*
X177895970Y-47007971D01*
X177433160Y-46315327D01*
X177258601Y-46198690D01*
X178245000Y-46198690D01*
X178245000Y-47539250D01*
X178403750Y-47698000D01*
X180253000Y-47698000D01*
X180253000Y-45848750D01*
X180507000Y-45848750D01*
X180507000Y-47698000D01*
X182356250Y-47698000D01*
X182515000Y-47539250D01*
X182515000Y-46198690D01*
X182418327Y-45965301D01*
X182239698Y-45786673D01*
X182006309Y-45690000D01*
X180665750Y-45690000D01*
X180507000Y-45848750D01*
X180253000Y-45848750D01*
X180094250Y-45690000D01*
X178753691Y-45690000D01*
X178520302Y-45786673D01*
X178341673Y-45965301D01*
X178245000Y-46198690D01*
X177258601Y-46198690D01*
X176740516Y-45852517D01*
X175923487Y-45690000D01*
X175839833Y-45690000D01*
X175022804Y-45852517D01*
X174330160Y-46315327D01*
X173867350Y-47007971D01*
X173704833Y-47825000D01*
X169888711Y-47825000D01*
X175678711Y-42035000D01*
X179983418Y-42035000D01*
X179718461Y-42299495D01*
X179427832Y-42999410D01*
X179427170Y-43757265D01*
X179716578Y-44457686D01*
X180251995Y-44994039D01*
X180951910Y-45284668D01*
X181709765Y-45285330D01*
X182410186Y-44995922D01*
X182946539Y-44460505D01*
X183237168Y-43760590D01*
X183237830Y-43002735D01*
X183201783Y-42915495D01*
X184768142Y-44481853D01*
X184768144Y-44481856D01*
X184969429Y-44616349D01*
X185103922Y-44706215D01*
X185500000Y-44785000D01*
X187499995Y-44785000D01*
X187500000Y-44785001D01*
X187896077Y-44706215D01*
X188231856Y-44481856D01*
X188731853Y-43981858D01*
X188731856Y-43981856D01*
X188881922Y-43757265D01*
X192762170Y-43757265D01*
X193051578Y-44457686D01*
X193586995Y-44994039D01*
X194286910Y-45284668D01*
X195044765Y-45285330D01*
X195745186Y-44995922D01*
X196281539Y-44460505D01*
X196572168Y-43760590D01*
X196572830Y-43002735D01*
X196283422Y-42302314D01*
X195748005Y-41765961D01*
X195048090Y-41475332D01*
X194290235Y-41474670D01*
X193589814Y-41764078D01*
X193053461Y-42299495D01*
X192762832Y-42999410D01*
X192762170Y-43757265D01*
X188881922Y-43757265D01*
X188956215Y-43646077D01*
X189035001Y-43250000D01*
X189035000Y-43249995D01*
X189035000Y-42530273D01*
X189263691Y-42625000D01*
X190254250Y-42625000D01*
X190413000Y-42466250D01*
X190413000Y-40967000D01*
X190667000Y-40967000D01*
X190667000Y-42466250D01*
X190825750Y-42625000D01*
X191816309Y-42625000D01*
X192049698Y-42528327D01*
X192228327Y-42349699D01*
X192325000Y-42116310D01*
X192325000Y-41125750D01*
X192166250Y-40967000D01*
X190667000Y-40967000D01*
X190413000Y-40967000D01*
X190393000Y-40967000D01*
X190393000Y-40713000D01*
X190413000Y-40713000D01*
X190413000Y-39213750D01*
X190667000Y-39213750D01*
X190667000Y-40713000D01*
X192166250Y-40713000D01*
X192325000Y-40554250D01*
X192325000Y-39563690D01*
X192228327Y-39330301D01*
X192049698Y-39151673D01*
X191816309Y-39055000D01*
X190825750Y-39055000D01*
X190667000Y-39213750D01*
X190413000Y-39213750D01*
X190254250Y-39055000D01*
X189263691Y-39055000D01*
X189030302Y-39151673D01*
X188900728Y-39281246D01*
X188356616Y-39055311D01*
X187646499Y-39054691D01*
X186990200Y-39325868D01*
X186729986Y-39585628D01*
X186495000Y-39350231D01*
X186495000Y-39035000D01*
X196571288Y-39035000D01*
X197125000Y-39588711D01*
X197125000Y-39588711D01*
G37*
X197125000Y-39588711D02*
X197125000Y-46971024D01*
X196647633Y-47447559D01*
X196375311Y-48103384D01*
X196374691Y-48813501D01*
X196645868Y-49469800D01*
X196905628Y-49730014D01*
X196647633Y-49987559D01*
X196375311Y-50643384D01*
X196374691Y-51353501D01*
X196600931Y-51901044D01*
X196471673Y-52030301D01*
X196375000Y-52263690D01*
X196375000Y-53254250D01*
X196533750Y-53413000D01*
X198033000Y-53413000D01*
X198033000Y-53393000D01*
X198287000Y-53393000D01*
X198287000Y-53413000D01*
X199786250Y-53413000D01*
X199945000Y-53254250D01*
X199945000Y-52263690D01*
X199850273Y-52035000D01*
X202821288Y-52035000D01*
X204965000Y-54178711D01*
X204965000Y-74321289D01*
X199571288Y-79715000D01*
X165678711Y-79715000D01*
X162335000Y-76371288D01*
X162335000Y-75327029D01*
X162570199Y-75092241D01*
X162912637Y-75435278D01*
X163513352Y-75684716D01*
X164163795Y-75685284D01*
X164764943Y-75436894D01*
X165110199Y-75092241D01*
X165452637Y-75435278D01*
X166053352Y-75684716D01*
X166703795Y-75685284D01*
X167304943Y-75436894D01*
X167650199Y-75092241D01*
X167992637Y-75435278D01*
X168593352Y-75684716D01*
X169243795Y-75685284D01*
X169844943Y-75436894D01*
X170190199Y-75092241D01*
X170532637Y-75435278D01*
X171133352Y-75684716D01*
X171783795Y-75685284D01*
X172384943Y-75436894D01*
X172730199Y-75092241D01*
X173072637Y-75435278D01*
X173673352Y-75684716D01*
X174323795Y-75685284D01*
X174924943Y-75436894D01*
X175270199Y-75092241D01*
X175612637Y-75435278D01*
X176213352Y-75684716D01*
X176863795Y-75685284D01*
X177464943Y-75436894D01*
X177810199Y-75092241D01*
X178152637Y-75435278D01*
X178753352Y-75684716D01*
X179403795Y-75685284D01*
X180004943Y-75436894D01*
X180350199Y-75092241D01*
X180692637Y-75435278D01*
X181293352Y-75684716D01*
X181943795Y-75685284D01*
X182544943Y-75436894D01*
X182607197Y-75374749D01*
X182621673Y-75409698D01*
X182800301Y-75588327D01*
X183033690Y-75685000D01*
X183874250Y-75685000D01*
X184033000Y-75526250D01*
X184033000Y-74177000D01*
X184013000Y-74177000D01*
X184013000Y-73923000D01*
X184033000Y-73923000D01*
X184033000Y-72573750D01*
X183874250Y-72415000D01*
X183033690Y-72415000D01*
X182800301Y-72511673D01*
X182621673Y-72690302D01*
X182607370Y-72724834D01*
X182547363Y-72664722D01*
X181946648Y-72415284D01*
X181296205Y-72414716D01*
X180695057Y-72663106D01*
X180349801Y-73007759D01*
X180007363Y-72664722D01*
X179406648Y-72415284D01*
X178756205Y-72414716D01*
X178155057Y-72663106D01*
X177809801Y-73007759D01*
X177467363Y-72664722D01*
X176866648Y-72415284D01*
X176216205Y-72414716D01*
X175615057Y-72663106D01*
X175269801Y-73007759D01*
X174927363Y-72664722D01*
X174326648Y-72415284D01*
X173676205Y-72414716D01*
X173075057Y-72663106D01*
X172729801Y-73007759D01*
X172387363Y-72664722D01*
X171786648Y-72415284D01*
X171136205Y-72414716D01*
X170535057Y-72663106D01*
X170189801Y-73007759D01*
X169847363Y-72664722D01*
X169246648Y-72415284D01*
X168596205Y-72414716D01*
X167995057Y-72663106D01*
X167649801Y-73007759D01*
X167307363Y-72664722D01*
X166706648Y-72415284D01*
X166056205Y-72414716D01*
X165455057Y-72663106D01*
X165109801Y-73007759D01*
X164875000Y-72772547D01*
X164875000Y-58997265D01*
X179427170Y-58997265D01*
X179716578Y-59697686D01*
X180251995Y-60234039D01*
X180951910Y-60524668D01*
X181709765Y-60525330D01*
X182410186Y-60235922D01*
X182946539Y-59700505D01*
X183237168Y-59000590D01*
X183237830Y-58242735D01*
X182948422Y-57542314D01*
X182413005Y-57005961D01*
X181713090Y-56715332D01*
X180955235Y-56714670D01*
X180254814Y-57004078D01*
X179718461Y-57539495D01*
X179427832Y-58239410D01*
X179427170Y-58997265D01*
X164875000Y-58997265D01*
X164875000Y-54175000D01*
X173704833Y-54175000D01*
X173867350Y-54992029D01*
X174330160Y-55684673D01*
X175022804Y-56147483D01*
X175839833Y-56310000D01*
X175923487Y-56310000D01*
X176740516Y-56147483D01*
X177433160Y-55684673D01*
X177895970Y-54992029D01*
X178058487Y-54175000D01*
X177895970Y-53357971D01*
X177433160Y-52665327D01*
X176740516Y-52202517D01*
X175923487Y-52040000D01*
X175839833Y-52040000D01*
X175022804Y-52202517D01*
X174330160Y-52665327D01*
X173867350Y-53357971D01*
X173704833Y-54175000D01*
X164875000Y-54175000D01*
X164875000Y-52838712D01*
X169888711Y-47825000D01*
X173704833Y-47825000D01*
X173867350Y-48642029D01*
X174330160Y-49334673D01*
X175022804Y-49797483D01*
X175839833Y-49960000D01*
X175923487Y-49960000D01*
X176448514Y-49855566D01*
X178574802Y-51981853D01*
X178574804Y-51981856D01*
X178776089Y-52116349D01*
X178910582Y-52206215D01*
X179306660Y-52285000D01*
X179397699Y-52285000D01*
X178828500Y-52665327D01*
X178365690Y-53357971D01*
X178203173Y-54175000D01*
X178365690Y-54992029D01*
X178828500Y-55684673D01*
X179521144Y-56147483D01*
X180338173Y-56310000D01*
X180421827Y-56310000D01*
X181238856Y-56147483D01*
X181931500Y-55684673D01*
X182394310Y-54992029D01*
X182556827Y-54175000D01*
X182394310Y-53357971D01*
X181931500Y-52665327D01*
X181362301Y-52285000D01*
X181571288Y-52285000D01*
X185665000Y-56378711D01*
X185665000Y-72656975D01*
X185519699Y-72511673D01*
X185286310Y-72415000D01*
X184445750Y-72415000D01*
X184287000Y-72573750D01*
X184287000Y-73923000D01*
X184307000Y-73923000D01*
X184307000Y-74177000D01*
X184287000Y-74177000D01*
X184287000Y-75526250D01*
X184445750Y-75685000D01*
X185286310Y-75685000D01*
X185519699Y-75588327D01*
X185698327Y-75409698D01*
X185712630Y-75375166D01*
X185772637Y-75435278D01*
X186373352Y-75684716D01*
X187023795Y-75685284D01*
X187624943Y-75436894D01*
X187970199Y-75092241D01*
X188312637Y-75435278D01*
X188913352Y-75684716D01*
X189563795Y-75685284D01*
X190164943Y-75436894D01*
X190510199Y-75092241D01*
X190852637Y-75435278D01*
X191453352Y-75684716D01*
X192103795Y-75685284D01*
X192704943Y-75436894D01*
X193050199Y-75092241D01*
X193392637Y-75435278D01*
X193993352Y-75684716D01*
X194643795Y-75685284D01*
X195244943Y-75436894D01*
X195590199Y-75092241D01*
X195932637Y-75435278D01*
X196533352Y-75684716D01*
X197183795Y-75685284D01*
X197784943Y-75436894D01*
X198245278Y-74977363D01*
X198494716Y-74376648D01*
X198495284Y-73726205D01*
X198246894Y-73125057D01*
X197787363Y-72664722D01*
X197186648Y-72415284D01*
X196536205Y-72414716D01*
X195935057Y-72663106D01*
X195589801Y-73007759D01*
X195247363Y-72664722D01*
X194646648Y-72415284D01*
X193996205Y-72414716D01*
X193395057Y-72663106D01*
X193049801Y-73007759D01*
X192707363Y-72664722D01*
X192106648Y-72415284D01*
X191456205Y-72414716D01*
X190855057Y-72663106D01*
X190509801Y-73007759D01*
X190167363Y-72664722D01*
X189566648Y-72415284D01*
X188916205Y-72414716D01*
X188315057Y-72663106D01*
X187969801Y-73007759D01*
X187735000Y-72772547D01*
X187735000Y-58997265D01*
X192762170Y-58997265D01*
X193051578Y-59697686D01*
X193586995Y-60234039D01*
X194286910Y-60524668D01*
X195044765Y-60525330D01*
X195745186Y-60235922D01*
X196281539Y-59700505D01*
X196572168Y-59000590D01*
X196572830Y-58242735D01*
X196283422Y-57542314D01*
X195748005Y-57005961D01*
X195048090Y-56715332D01*
X194290235Y-56714670D01*
X193589814Y-57004078D01*
X193053461Y-57539495D01*
X192762832Y-58239410D01*
X192762170Y-58997265D01*
X187735000Y-58997265D01*
X187735000Y-55950005D01*
X187735001Y-55950000D01*
X187656215Y-55553923D01*
X187503254Y-55325000D01*
X187431856Y-55218144D01*
X187431853Y-55218142D01*
X186039462Y-53825750D01*
X196375000Y-53825750D01*
X196375000Y-54816310D01*
X196471673Y-55049699D01*
X196650302Y-55228327D01*
X196883691Y-55325000D01*
X197874250Y-55325000D01*
X198033000Y-55166250D01*
X198033000Y-53667000D01*
X198287000Y-53667000D01*
X198287000Y-55166250D01*
X198445750Y-55325000D01*
X199436309Y-55325000D01*
X199669698Y-55228327D01*
X199848327Y-55049699D01*
X199945000Y-54816310D01*
X199945000Y-53825750D01*
X199786250Y-53667000D01*
X198287000Y-53667000D01*
X198033000Y-53667000D01*
X196533750Y-53667000D01*
X196375000Y-53825750D01*
X186039462Y-53825750D01*
X182731856Y-50518144D01*
X182396077Y-50293785D01*
X182000000Y-50214999D01*
X181999995Y-50215000D01*
X179735371Y-50215000D01*
X179480371Y-49960000D01*
X180094250Y-49960000D01*
X180253000Y-49801250D01*
X180253000Y-47952000D01*
X180507000Y-47952000D01*
X180507000Y-49801250D01*
X180665750Y-49960000D01*
X182006309Y-49960000D01*
X182239698Y-49863327D01*
X182418327Y-49684699D01*
X182515000Y-49451310D01*
X182515000Y-48110750D01*
X182356250Y-47952000D01*
X180507000Y-47952000D01*
X180253000Y-47952000D01*
X178403750Y-47952000D01*
X178245000Y-48110750D01*
X178245000Y-48724628D01*
X177940174Y-48419802D01*
X178058487Y-47825000D01*
X177895970Y-47007971D01*
X177433160Y-46315327D01*
X177258601Y-46198690D01*
X178245000Y-46198690D01*
X178245000Y-47539250D01*
X178403750Y-47698000D01*
X180253000Y-47698000D01*
X180253000Y-45848750D01*
X180507000Y-45848750D01*
X180507000Y-47698000D01*
X182356250Y-47698000D01*
X182515000Y-47539250D01*
X182515000Y-46198690D01*
X182418327Y-45965301D01*
X182239698Y-45786673D01*
X182006309Y-45690000D01*
X180665750Y-45690000D01*
X180507000Y-45848750D01*
X180253000Y-45848750D01*
X180094250Y-45690000D01*
X178753691Y-45690000D01*
X178520302Y-45786673D01*
X178341673Y-45965301D01*
X178245000Y-46198690D01*
X177258601Y-46198690D01*
X176740516Y-45852517D01*
X175923487Y-45690000D01*
X175839833Y-45690000D01*
X175022804Y-45852517D01*
X174330160Y-46315327D01*
X173867350Y-47007971D01*
X173704833Y-47825000D01*
X169888711Y-47825000D01*
X175678711Y-42035000D01*
X179983418Y-42035000D01*
X179718461Y-42299495D01*
X179427832Y-42999410D01*
X179427170Y-43757265D01*
X179716578Y-44457686D01*
X180251995Y-44994039D01*
X180951910Y-45284668D01*
X181709765Y-45285330D01*
X182410186Y-44995922D01*
X182946539Y-44460505D01*
X183237168Y-43760590D01*
X183237830Y-43002735D01*
X183201783Y-42915495D01*
X184768142Y-44481853D01*
X184768144Y-44481856D01*
X184969429Y-44616349D01*
X185103922Y-44706215D01*
X185500000Y-44785000D01*
X187499995Y-44785000D01*
X187500000Y-44785001D01*
X187896077Y-44706215D01*
X188231856Y-44481856D01*
X188731853Y-43981858D01*
X188731856Y-43981856D01*
X188881922Y-43757265D01*
X192762170Y-43757265D01*
X193051578Y-44457686D01*
X193586995Y-44994039D01*
X194286910Y-45284668D01*
X195044765Y-45285330D01*
X195745186Y-44995922D01*
X196281539Y-44460505D01*
X196572168Y-43760590D01*
X196572830Y-43002735D01*
X196283422Y-42302314D01*
X195748005Y-41765961D01*
X195048090Y-41475332D01*
X194290235Y-41474670D01*
X193589814Y-41764078D01*
X193053461Y-42299495D01*
X192762832Y-42999410D01*
X192762170Y-43757265D01*
X188881922Y-43757265D01*
X188956215Y-43646077D01*
X189035001Y-43250000D01*
X189035000Y-43249995D01*
X189035000Y-42530273D01*
X189263691Y-42625000D01*
X190254250Y-42625000D01*
X190413000Y-42466250D01*
X190413000Y-40967000D01*
X190667000Y-40967000D01*
X190667000Y-42466250D01*
X190825750Y-42625000D01*
X191816309Y-42625000D01*
X192049698Y-42528327D01*
X192228327Y-42349699D01*
X192325000Y-42116310D01*
X192325000Y-41125750D01*
X192166250Y-40967000D01*
X190667000Y-40967000D01*
X190413000Y-40967000D01*
X190393000Y-40967000D01*
X190393000Y-40713000D01*
X190413000Y-40713000D01*
X190413000Y-39213750D01*
X190667000Y-39213750D01*
X190667000Y-40713000D01*
X192166250Y-40713000D01*
X192325000Y-40554250D01*
X192325000Y-39563690D01*
X192228327Y-39330301D01*
X192049698Y-39151673D01*
X191816309Y-39055000D01*
X190825750Y-39055000D01*
X190667000Y-39213750D01*
X190413000Y-39213750D01*
X190254250Y-39055000D01*
X189263691Y-39055000D01*
X189030302Y-39151673D01*
X188900728Y-39281246D01*
X188356616Y-39055311D01*
X187646499Y-39054691D01*
X186990200Y-39325868D01*
X186729986Y-39585628D01*
X186495000Y-39350231D01*
X186495000Y-39035000D01*
X196571288Y-39035000D01*
X197125000Y-39588711D01*
M02*
